HIERARCHY
ROOT Hips
{
	OFFSET 0.000000 83.214638 0.000000
	CHANNELS 6 Xposition Yposition Zposition Xrotation Yrotation Zrotation
	JOINT Pelvis
	{
		OFFSET 0.000000 0.000000 0.000000
		CHANNELS 3 Xrotation Yrotation Zrotation
		JOINT LeftUpLeg
		{
			OFFSET 8.479700 -4.795502 -0.379100
			CHANNELS 3 Xrotation Yrotation Zrotation
			JOINT LeftLeg
			{
				OFFSET 0.024144 -32.555107 0.112900
				CHANNELS 3 Xrotation Yrotation Zrotation
				JOINT LeftFoot
				{
					OFFSET -0.024144 -32.638630 -3.012600
					CHANNELS 3 Xrotation Yrotation Zrotation
					JOINT LeftToeBase
					{
						OFFSET 0.970200 -13.225400 11.864200
						CHANNELS 3 Xrotation Yrotation Zrotation
						End Site
						{
							OFFSET 0.000000 12.319262 0.000000
						}
					}
					JOINT LFootTongue
					{
						OFFSET 1.142400 -1.059800 6.665200
						CHANNELS 3 Xrotation Yrotation Zrotation
						End Site
						{
							OFFSET 0.000000 12.319262 0.000000
						}
					}
				}
				JOINT LeftPantLeg
				{
					OFFSET 0.918482 -16.533964 -2.284700
					CHANNELS 3 Xrotation Yrotation Zrotation
					End Site
					{
						OFFSET 0.350399 24.744368 0.000000
					}
				}
			}
		}
		JOINT RightUpLeg
		{
			OFFSET -8.479700 -4.795502 -0.379100
			CHANNELS 3 Xrotation Yrotation Zrotation
			JOINT RightLeg
			{
				OFFSET -0.023144 -32.555092 0.112900
				CHANNELS 3 Xrotation Yrotation Zrotation
				JOINT RightFoot
				{
					OFFSET 0.023144 -32.638641 -3.012700
					CHANNELS 3 Xrotation Yrotation Zrotation
					JOINT RightToeBase
					{
						OFFSET -0.970200 -13.225400 11.864200
						CHANNELS 3 Xrotation Yrotation Zrotation
						End Site
						{
							OFFSET 0.000000 12.319244 0.000000
						}
					}
					JOINT RFootTongue
					{
						OFFSET -1.142200 -1.059800 6.665200
						CHANNELS 3 Xrotation Yrotation Zrotation
						End Site
						{
							OFFSET 0.000000 12.319243 0.000000
						}
					}
				}
				JOINT RightPantLeg
				{
					OFFSET -0.919482 -16.533978 -2.284800
					CHANNELS 3 Xrotation Yrotation Zrotation
					End Site
					{
						OFFSET -0.350400 24.744419 0.000000
					}
				}
			}
		}
	}
	JOINT Spine
	{
		OFFSET 0.000000 7.722000 1.166200
		CHANNELS 3 Xrotation Yrotation Zrotation
		JOINT Spine1
		{
			OFFSET 0.000000 12.024101 0.248800
			CHANNELS 3 Xrotation Yrotation Zrotation
			JOINT Spine2
			{
				OFFSET 0.000000 11.502998 -0.491200
				CHANNELS 3 Xrotation Yrotation Zrotation
				JOINT Neck
				{
					OFFSET 0.000000 18.430702 -3.123100
					CHANNELS 3 Xrotation Yrotation Zrotation
					JOINT Head
					{
						OFFSET 0.000000 9.051102 1.034000
						CHANNELS 3 Xrotation Yrotation Zrotation
						JOINT HairB
						{
							OFFSET 0.208400 24.786102 24.822300
							CHANNELS 3 Xrotation Yrotation Zrotation
							End Site
							{
								OFFSET 0.000000 32.263779 0.000000
							}
						}
						JOINT HairA
						{
							OFFSET -7.081100 24.428299 23.196600
							CHANNELS 3 Xrotation Yrotation Zrotation
							End Site
							{
								OFFSET 0.000000 32.263779 0.000000
							}
						}
						JOINT Hat
						{
							OFFSET 16.728800 15.048294 -15.439601
							CHANNELS 3 Xrotation Yrotation Zrotation
							End Site
							{
								OFFSET 0.000000 32.263779 0.000000
							}
						}
					}
				}
				JOINT LeftShoulder
				{
					OFFSET 6.197800 13.665199 -4.064700
					CHANNELS 3 Xrotation Yrotation Zrotation
					JOINT LeftArm
					{
						OFFSET 7.778100 -0.187103 -1.709300
						CHANNELS 3 Xrotation Yrotation Zrotation
						JOINT LeftForeArm
						{
							OFFSET 22.049376 0.000000 0.000000
							CHANNELS 3 Xrotation Yrotation Zrotation
							JOINT LeftHand
							{
								OFFSET 23.009392 0.000000 0.000000
								CHANNELS 3 Xrotation Yrotation Zrotation
								JOINT LeftHandThumb1
								{
									OFFSET 3.507191 -2.063065 3.133727
									CHANNELS 3 Xrotation Yrotation Zrotation
									JOINT LeftHandThumb2
									{
										OFFSET 3.101337 -1.790558 1.790558
										CHANNELS 3 Xrotation Yrotation Zrotation
										JOINT LeftHandThumb3
										{
											OFFSET 3.058640 -1.765907 1.765906
											CHANNELS 3 Xrotation Yrotation Zrotation
											End Site
											{
												OFFSET -0.415260 3.926476 -0.049563
											}
										}
									}
								}
								JOINT LeftHandIndex1
								{
									OFFSET 11.334419 -0.901459 3.706815
									CHANNELS 3 Xrotation Yrotation Zrotation
									JOINT LeftHandIndex2
									{
										OFFSET 3.283112 0.000000 0.000000
										CHANNELS 3 Xrotation Yrotation Zrotation
										JOINT LeftHandIndex3
										{
											OFFSET 3.323853 0.000000 0.000000
											CHANNELS 3 Xrotation Yrotation Zrotation
											End Site
											{
												OFFSET -1.135597 3.097809 0.402452
											}
										}
									}
								}
								JOINT LeftHandMiddle1
								{
									OFFSET 11.335861 0.000000 0.000000
									CHANNELS 3 Xrotation Yrotation Zrotation
									JOINT LeftHandMiddle2
									{
										OFFSET 3.410492 0.000000 0.000000
										CHANNELS 3 Xrotation Yrotation Zrotation
										JOINT LeftHandMiddle3
										{
											OFFSET 3.312172 0.000000 0.000000
											CHANNELS 3 Xrotation Yrotation Zrotation
											End Site
											{
												OFFSET -1.150200 3.080154 0.400270
											}
										}
									}
								}
								JOINT LeftHandRing1
								{
									OFFSET 11.514786 -0.013176 -3.003090
									CHANNELS 3 Xrotation Yrotation Zrotation
									JOINT LeftHandRing2
									{
										OFFSET 3.053307 0.000000 0.000000
										CHANNELS 3 Xrotation Yrotation Zrotation
										JOINT LeftHandRing3
										{
											OFFSET 3.295807 0.000000 0.000000
											CHANNELS 3 Xrotation Yrotation Zrotation
											End Site
											{
												OFFSET -1.281006 3.013344 0.375733
											}
										}
									}
								}
								JOINT LeftHandPinky1
								{
									OFFSET 10.518692 -0.960396 -5.730441
									CHANNELS 3 Xrotation Yrotation Zrotation
									JOINT LeftHandPinky2
									{
										OFFSET 2.861649 0.000000 0.000000
										CHANNELS 3 Xrotation Yrotation Zrotation
										JOINT LeftHandPinky3
										{
											OFFSET 2.863380 0.000000 0.000000
											CHANNELS 3 Xrotation Yrotation Zrotation
											End Site
											{
												OFFSET -0.843597 2.711159 0.369971
											}
										}
									}
								}
							}
							JOINT LSleeve
							{
								OFFSET 6.676277 -0.344902 -1.011730
								CHANNELS 3 Xrotation Yrotation Zrotation
								End Site
								{
									OFFSET 0.000000 14.885353 0.000000
								}
							}
						}
					}
				}
				JOINT RightShoulder
				{
					OFFSET -6.197800 13.665199 -4.064700
					CHANNELS 3 Xrotation Yrotation Zrotation
					JOINT RightArm
					{
						OFFSET -7.778100 -0.187103 -1.709300
						CHANNELS 3 Xrotation Yrotation Zrotation
						JOINT RightForeArm
						{
							OFFSET -22.049376 0.000000 0.000000
							CHANNELS 3 Xrotation Yrotation Zrotation
							JOINT RightHand
							{
								OFFSET -23.009392 0.000000 0.000000
								CHANNELS 3 Xrotation Yrotation Zrotation
								JOINT RightHandThumb1
								{
									OFFSET -3.507191 -2.063065 3.133727
									CHANNELS 3 Xrotation Yrotation Zrotation
									JOINT RightHandThumb2
									{
										OFFSET -3.101337 -1.790558 1.790558
										CHANNELS 3 Xrotation Yrotation Zrotation
										JOINT RightHandThumb3
										{
											OFFSET -3.058640 -1.765907 1.765906
											CHANNELS 3 Xrotation Yrotation Zrotation
											End Site
											{
												OFFSET 0.415260 3.926476 -0.049563
											}
										}
									}
								}
								JOINT RightHandIndex1
								{
									OFFSET -11.334419 -0.901459 3.706815
									CHANNELS 3 Xrotation Yrotation Zrotation
									JOINT RightHandIndex2
									{
										OFFSET -3.283112 0.000000 0.000000
										CHANNELS 3 Xrotation Yrotation Zrotation
										JOINT RightHandIndex3
										{
											OFFSET -3.323853 0.000000 0.000000
											CHANNELS 3 Xrotation Yrotation Zrotation
											End Site
											{
												OFFSET 1.135597 3.097809 0.402452
											}
										}
									}
								}
								JOINT RightHandMiddle1
								{
									OFFSET -11.335861 0.000000 0.000000
									CHANNELS 3 Xrotation Yrotation Zrotation
									JOINT RightHandMiddle2
									{
										OFFSET -3.410492 0.000000 0.000000
										CHANNELS 3 Xrotation Yrotation Zrotation
										JOINT RightHandMiddle3
										{
											OFFSET -3.312172 0.000000 0.000000
											CHANNELS 3 Xrotation Yrotation Zrotation
											End Site
											{
												OFFSET 1.150200 3.080154 0.400270
											}
										}
									}
								}
								JOINT RightHandRing1
								{
									OFFSET -11.514786 -0.013176 -3.003090
									CHANNELS 3 Xrotation Yrotation Zrotation
									JOINT RightHandRing2
									{
										OFFSET -3.053307 0.000000 0.000000
										CHANNELS 3 Xrotation Yrotation Zrotation
										JOINT RightHandRing3
										{
											OFFSET -3.295807 0.000000 0.000000
											CHANNELS 3 Xrotation Yrotation Zrotation
											End Site
											{
												OFFSET 1.281006 3.013344 0.375733
											}
										}
									}
								}
								JOINT RightHandPinky1
								{
									OFFSET -10.518692 -0.960396 -5.730441
									CHANNELS 3 Xrotation Yrotation Zrotation
									JOINT RightHandPinky2
									{
										OFFSET -2.861649 0.000000 0.000000
										CHANNELS 3 Xrotation Yrotation Zrotation
										JOINT RightHandPinky3
										{
											OFFSET -2.863380 0.000000 0.000000
											CHANNELS 3 Xrotation Yrotation Zrotation
											End Site
											{
												OFFSET 0.843597 2.711159 0.369971
											}
										}
									}
								}
							}
							JOINT RSleeve
							{
								OFFSET -6.676277 -0.344902 -1.011730
								CHANNELS 3 Xrotation Yrotation Zrotation
								End Site
								{
									OFFSET 0.000000 14.885353 0.000000
								}
							}
						}
					}
				}
				JOINT Backpack
				{
					OFFSET 0.000000 -2.471497 36.677502
					CHANNELS 3 Xrotation Yrotation Zrotation
					End Site
					{
						OFFSET 0.000000 20.427315 0.000000
					}
				}
				JOINT Hood
				{
					OFFSET 0.000000 18.754097 -10.431000
					CHANNELS 3 Xrotation Yrotation Zrotation
					JOINT Hood1
					{
						OFFSET 0.000000 -5.011002 -7.685901
						CHANNELS 3 Xrotation Yrotation Zrotation
						End Site
						{
							OFFSET 0.000000 9.175140 0.000000
						}
					}
				}
				JOINT LHoodieString
				{
					OFFSET 5.250500 16.397697 3.089900
					CHANNELS 3 Xrotation Yrotation Zrotation
					JOINT LHoodieString1
					{
						OFFSET 0.257700 -6.364304 3.694600
						CHANNELS 3 Xrotation Yrotation Zrotation
						JOINT LHoodieString2
						{
							OFFSET 0.000000 -9.643799 2.679100
							CHANNELS 3 Xrotation Yrotation Zrotation
							End Site
							{
								OFFSET 0.000000 10.009018 0.000000
							}
						}
					}
				}
				JOINT RHoodieString
				{
					OFFSET -5.250500 16.397697 3.089900
					CHANNELS 3 Xrotation Yrotation Zrotation
					JOINT RHoodieString1
					{
						OFFSET -0.257700 -6.364304 3.694600
						CHANNELS 3 Xrotation Yrotation Zrotation
						JOINT RHoodieString2
						{
							OFFSET 0.000000 -9.643799 2.679100
							CHANNELS 3 Xrotation Yrotation Zrotation
							End Site
							{
								OFFSET 0.000000 10.009018 0.000000
							}
						}
					}
				}
			}
			JOINT LBackpack_Strap
			{
				OFFSET 15.223200 -7.719803 -6.610900
				CHANNELS 3 Xrotation Yrotation Zrotation
				End Site
				{
					OFFSET 0.000000 16.040596 0.000000
				}
			}
			JOINT RBackpack_Strap
			{
				OFFSET -15.223000 -7.719803 -6.610900
				CHANNELS 3 Xrotation Yrotation Zrotation
				End Site
				{
					OFFSET 0.000000 16.040596 0.000000
				}
			}
		}
	}
	JOINT BoyFacialAnim_Joint
	{
		OFFSET 1.000000 -82.208099 -1.550900
		CHANNELS 3 Xrotation Yrotation Zrotation
		End Site
		{
			OFFSET 0.000000 30.012791 0.000000
		}
	}
}
MOTION
Frames: 4
Frame Time: 0.033333
-0.258320 77.263046 0.131966 -6.086984 -43.032811 -4.015737 0.000000 0.000001 -0.000000 -27.325500 5.711036 13.933391 33.959800 -14.112913 -0.201572 -4.092307 0.706177 -8.142970 0.000000 -0.000004 -0.000000 0.000000 -0.000004 -0.000000 0.000001 -0.000000 -0.000000 -4.367470 -13.685817 -15.656127 32.701901 -9.022119 -0.425760 -20.500796 -4.052847 17.151430 -0.000000 0.000001 -0.000000 -0.000000 0.000001 -0.000000 -0.000002 0.000000 0.000001 5.833959 4.645102 -1.245076 11.836551 9.037620 -3.083975 11.836545 9.037619 -3.083970 -4.303076 -1.272951 0.206310 -6.271929 20.437792 -0.377164 -0.000001 -0.000000 0.000000 -0.000001 -0.000000 0.000000 -0.000001 -0.000000 0.000000 1.392452 -0.696072 -7.877844 -14.260100 2.394329 -63.277079 9.865051 -47.524921 5.927922 16.172836 0.915163 18.795412 9.163605 4.814113 -5.499007 -0.335362 0.032557 0.783681 0.000002 -0.000001 0.000000 -0.902017 -6.980959 -3.808416 0.033397 0.804255 -16.418984 -0.000001 0.000001 -0.000002 1.947842 9.683105 -14.539770 -0.456428 -1.565426 -21.881039 0.000001 0.000001 0.000000 2.605874 14.896817 -31.345248 -0.576847 -2.712397 -32.011536 -0.000000 0.000000 -0.000000 4.170589 18.495013 -34.987330 -0.706802 -5.788613 -39.372929 -0.000002 -0.000001 -0.000002 0.000003 -0.000002 0.000001 1.410916 9.461487 9.792749 1.220039 -24.270693 60.532920 -6.660689 41.858418 8.043802 6.225267 12.322347 11.673294 -8.895857 -4.903135 -0.383714 7.904839 -19.192478 -2.856852 -0.000002 0.000001 -0.000001 -1.085515 -1.215495 4.525252 0.142138 -1.115555 16.942580 -0.000000 -0.000000 0.000003 -0.663648 -2.903891 12.731600 -0.660557 1.813451 30.578986 0.000001 0.000003 0.000002 2.423626 -7.404564 21.763308 -0.989691 3.764338 37.431107 -0.000001 -0.000001 -0.000005 3.481031 -10.055062 24.322722 -1.458320 7.872015 41.091938 -0.000001 -0.000003 0.000001 0.000002 -0.000000 0.000000 0.000002 0.000001 -0.000001 0.000002 0.000001 -0.000001 0.000002 0.000001 -0.000001 0.000002 0.000001 -0.000001 0.000002 0.000001 -0.000000 0.000002 0.000001 0.000000 0.000002 0.000001 -0.000001 0.000002 0.000001 -0.000000 0.000002 0.000001 0.000000 0.000000 0.000000 0.000000 0.000000 0.000000 0.000000 0.000000 0.000001 -0.000000 
0.230925 77.295029 0.673453 -5.141354 -43.037674 -3.907739 0.000000 0.000001 0.000000 -27.485964 6.239274 15.440268 35.396639 -10.687778 -0.474930 -5.662545 0.765361 -8.319441 -0.000000 -0.000000 -0.000000 -0.000000 -0.000000 -0.000000 -0.000001 0.000000 -0.000000 -6.612477 -13.305462 -16.691130 32.323689 -4.246876 0.057222 -19.686151 -3.647831 15.865642 0.000000 -0.000000 0.000000 0.000000 -0.000000 0.000000 0.000001 0.000002 -0.000002 5.695677 4.683698 -1.134011 11.556789 9.131658 -2.894272 11.556782 9.131656 -2.894269 -4.846850 -0.433399 -0.190393 -5.490974 20.216202 -0.629462 -0.000001 -0.000000 -0.000000 -0.000001 -0.000000 -0.000000 -0.000001 -0.000000 -0.000000 1.403328 -0.484740 -8.477781 -14.313846 2.722900 -62.862343 9.878705 -46.884816 5.969581 16.539023 0.937745 17.847988 9.163599 4.814111 -5.499028 -0.335366 0.032558 0.783680 0.000001 -0.000003 0.000002 -0.903794 -7.006615 -4.066949 0.024256 0.773491 -16.681919 -0.000002 0.000000 -0.000004 1.941317 9.658509 -14.797036 -0.467224 -1.592160 -22.144754 0.000002 0.000002 -0.000001 2.596104 14.881404 -31.601697 -0.585437 -2.726050 -32.276472 0.000003 0.000000 -0.000002 4.162166 18.483663 -35.243865 -0.710423 -5.792996 -39.638265 0.000003 -0.000001 -0.000004 -0.000000 0.000003 -0.000001 1.432388 9.304501 9.768006 0.944159 -24.436585 60.230445 -6.813262 41.445940 8.022902 6.333974 12.395723 11.586838 -8.797200 -4.893667 -0.195125 7.874669 -19.125225 -2.856139 -0.000001 0.000001 -0.000000 -1.086373 -1.204719 4.663625 0.140886 -1.111502 16.984929 -0.000001 -0.000001 0.000003 -0.668218 -2.883898 12.992958 -0.675229 1.838088 30.899527 -0.000000 0.000001 -0.000002 2.411165 -7.373842 22.108942 -1.006564 3.786190 37.752412 -0.000001 0.000001 0.000002 3.463398 -10.016956 24.703435 -1.474690 7.890497 41.414633 -0.000001 -0.000002 -0.000005 0.000001 -0.000001 0.000000 0.000001 -0.000000 0.000000 0.000001 -0.000000 0.000000 0.000001 -0.000000 0.000000 0.000001 -0.000000 0.000000 0.000001 -0.000000 -0.000001 0.000001 0.000000 -0.000000 0.000001 -0.000000 0.000000 0.000001 -0.000000 -0.000001 0.000001 0.000000 -0.000000 0.000000 -0.000000 0.000000 0.000000 -0.000000 0.000000 0.000000 0.000001 0.000000 
1.517964 77.429939 1.737829 -3.425675 -43.053978 -3.425370 -0.000000 0.000001 -0.000000 -28.292428 6.859102 16.162314 37.173858 -6.805446 -0.739024 -7.404850 0.795613 -7.883029 0.000000 -0.000000 -0.000000 0.000000 -0.000000 -0.000000 -0.000000 0.000003 -0.000001 -8.845042 -12.618473 -17.843652 30.038533 0.044409 0.468170 -17.340522 -3.184375 15.537847 -0.000000 0.000000 0.000000 -0.000000 0.000000 0.000000 -0.000000 -0.000000 0.000003 5.573469 4.731439 -0.995754 11.310971 9.245601 -2.680890 11.310969 9.245611 -2.680893 -5.898783 0.209548 -0.915776 -4.333141 18.252330 -0.861296 0.000000 -0.000000 0.000000 0.000000 -0.000000 0.000000 0.000000 -0.000000 0.000000 1.410336 -0.293424 -9.242904 -14.460299 3.002538 -62.303421 9.746893 -46.324238 5.934954 16.773034 0.731776 16.203379 9.163594 4.814098 -5.499030 -0.335363 0.032571 0.783691 0.000002 -0.000002 0.000001 -0.909294 -7.077089 -4.777460 -0.001558 0.689198 -17.404401 -0.000001 -0.000001 -0.000000 1.922815 9.591090 -15.503848 -0.497581 -1.665384 -22.869512 0.000001 -0.000001 0.000000 2.568907 14.839221 -32.306344 -0.609341 -2.763332 -33.004478 -0.000000 0.000000 -0.000000 4.138739 18.452610 -35.948751 -0.720493 -5.804935 -40.367296 0.000001 -0.000001 0.000001 0.000002 0.000004 -0.000001 1.455512 9.177262 9.713365 0.589425 -24.514608 60.015520 -7.346805 40.944911 8.176643 6.235569 12.565305 10.924022 -8.522188 -4.865535 0.330760 7.790581 -18.937663 -2.853830 -0.000001 0.000000 0.000002 -1.088916 -1.174710 5.049570 0.137417 -1.100165 17.102954 -0.000001 0.000000 0.000004 -0.681454 -2.828227 13.721928 -0.716779 1.906322 31.793697 -0.000000 -0.000000 -0.000002 2.375383 -7.288546 23.072917 -1.054247 3.846634 38.648687 -0.000001 -0.000002 0.000002 3.412814 -9.911264 25.765202 -1.520886 7.941559 42.314753 -0.000000 0.000001 0.000002 0.000001 -0.000000 -0.000000 0.000002 0.000001 -0.000001 0.000002 0.000001 -0.000001 0.000002 0.000001 -0.000001 0.000002 0.000001 -0.000001 0.000002 0.000001 -0.000001 0.000002 0.000001 -0.000000 0.000002 0.000001 -0.000001 0.000002 0.000001 -0.000001 0.000002 0.000001 -0.000000 -0.000000 -0.000000 -0.000000 -0.000000 -0.000000 -0.000000 -0.000000 0.000001 -0.000000 
3.272502 77.623024 2.779390 -1.625934 -43.048941 -2.993541 -0.000000 -0.000001 -0.000000 -29.220188 7.512623 16.481149 38.712945 -2.823370 -0.978602 -8.944110 0.818776 -7.313179 -0.000000 0.000001 -0.000000 -0.000000 0.000001 -0.000000 -0.000001 0.000004 -0.000000 -10.521648 -11.851570 -18.713289 26.735239 0.257743 0.533532 -14.037254 -2.804002 16.514993 -0.000000 -0.000002 0.000000 -0.000000 -0.000002 0.000000 -0.000000 -0.000002 -0.000000 5.487662 4.788442 -0.832942 11.139972 9.374114 -2.449609 11.139964 9.374109 -2.449610 -7.324203 0.635256 -2.010847 -3.103842 14.813908 -0.909701 0.000001 -0.000000 -0.000000 0.000001 -0.000000 -0.000000 0.000001 -0.000000 -0.000000 1.409009 -0.193312 -9.953796 -14.565853 3.240827 -61.889533 9.339543 -46.041168 5.730722 16.604120 0.474651 14.518073 9.163602 4.814114 -5.499028 -0.335368 0.032580 0.783673 -0.000000 -0.000001 0.000001 -0.919167 -7.182536 -5.842298 -0.042253 0.563533 -18.487124 -0.000002 0.000000 -0.000005 1.893509 9.490556 -16.562748 -0.544786 -1.774340 -23.955579 -0.000006 -0.000003 -0.000000 2.527134 14.776670 -33.361943 -0.646021 -2.818634 -34.095416 0.000004 0.000000 0.000001 4.102887 18.406646 -37.004776 -0.735831 -5.822553 -41.459774 -0.000003 0.000003 0.000005 0.000002 0.000000 -0.000002 1.484118 9.054091 9.621621 0.199528 -24.392974 59.975741 -8.125098 40.532996 8.456076 5.985990 12.636125 9.701163 -8.102478 -4.817685 1.134066 7.662242 -18.651020 -2.849826 0.000002 0.000001 -0.000000 -1.093217 -1.128878 5.639343 0.132066 -1.082863 17.283357 0.000001 0.000001 0.000002 -0.703045 -2.743477 14.835854 -0.782400 2.009339 33.160326 0.000000 0.000001 0.000002 2.317936 -7.159407 24.545876 -1.128952 3.937608 40.018526 0.000000 -0.000001 -0.000003 3.331733 -9.751581 27.387283 -1.593033 8.018190 43.690593 -0.000000 0.000001 -0.000003 -0.000001 0.000001 -0.000002 -0.000001 0.000003 -0.000001 -0.000001 0.000003 -0.000001 -0.000001 0.000003 -0.000001 -0.000001 0.000003 -0.000001 -0.000001 0.000003 -0.000001 -0.000001 -0.000000 -0.000000 -0.000001 0.000003 -0.000001 -0.000001 0.000003 -0.000001 -0.000001 -0.000000 -0.000000 0.000001 -0.000001 -0.000000 0.000001 -0.000001 -0.000000 -0.000000 -0.000001 -0.000000 
